<svg xmlns="http://www.w3.org/2000/svg" viewBox="0 0 64 64" role="img" aria-label="Camille 張若琳 favicon">
  <defs>
    <linearGradient id="bg" x1="9" y1="5" x2="56" y2="60" gradientUnits="userSpaceOnUse">
      <stop stop-color="#111a24"/>
      <stop offset="0.5" stop-color="#05070b"/>
      <stop offset="1" stop-color="#07111a"/>
    </linearGradient>
    <linearGradient id="mark" x1="12" y1="13" x2="52" y2="50" gradientUnits="userSpaceOnUse">
      <stop stop-color="#eef7fb"/>
      <stop offset="0.58" stop-color="#7bc8d8"/>
      <stop offset="1" stop-color="#c8a35c"/>
    </linearGradient>
  </defs>
  <rect width="64" height="64" rx="13" fill="url(#bg)"/>
  <rect x="5.5" y="5.5" width="53" height="53" rx="10" fill="none" stroke="#7bc8d8" stroke-opacity="0.34"/>
  <path d="M21.2 42.6c-6.5 0-11.2-4.7-11.2-11.1 0-6.7 4.9-11.5 11.6-11.5 3 0 5.6.9 7.7 2.7l-2.7 4.1c-1.4-1.1-2.9-1.7-4.8-1.7-3.5 0-5.9 2.6-5.9 6.2 0 3.7 2.4 6.2 5.9 6.2 2 0 3.7-.7 5.1-1.9l2.6 4c-2.2 2-4.9 3-8.3 3Z" fill="url(#mark)"/>
  <path d="M32.4 20.6h10.1c5.1 0 8.4 2.8 8.4 7.3 0 3.1-1.6 5.4-4.4 6.5l5.6 7.6h-6.7l-4.8-6.9h-2.4V42h-5.8V20.6Zm9.7 9.9c1.8 0 2.9-.9 2.9-2.5s-1.1-2.5-2.9-2.5h-3.9v5h3.9Z" fill="#eef7fb"/>
  <path d="M12 49.5h40" stroke="#c8a35c" stroke-width="1.8" stroke-linecap="round" stroke-opacity="0.72"/>
</svg>
