<svg xmlns="http://www.w3.org/2000/svg" viewBox="0 0 760 960" role="img" aria-labelledby="title desc">
  <title id="title">高端商務人物視覺</title>
  <desc id="desc">為金融專業人士設計的克制深色商務人物視覺。</desc>
  <defs>
    <linearGradient id="bg" x1="0" x2="1" y1="0" y2="1">
      <stop offset="0" stop-color="#17212e"/>
      <stop offset=".56" stop-color="#080d14"/>
      <stop offset="1" stop-color="#111827"/>
    </linearGradient>
    <linearGradient id="suit" x1="0" x2="1" y1="0" y2="1">
      <stop offset="0" stop-color="#111827"/>
      <stop offset="1" stop-color="#030508"/>
    </linearGradient>
    <radialGradient id="light" cx=".34" cy=".18" r=".66">
      <stop offset="0" stop-color="#7bc8d8" stop-opacity=".28"/>
      <stop offset=".52" stop-color="#4f86a8" stop-opacity=".08"/>
      <stop offset="1" stop-color="#05070b" stop-opacity="0"/>
    </radialGradient>
  </defs>
  <rect width="760" height="960" fill="url(#bg)"/>
  <rect width="760" height="960" fill="url(#light)"/>
  <g opacity=".18" stroke="#b7c5d0">
    <path d="M60 140h640M60 260h640M60 380h640M60 500h640M60 620h640M60 740h640"/>
    <path d="M140 80v780M260 80v780M380 80v780M500 80v780M620 80v780"/>
  </g>
  <path d="M152 902c34-160 136-243 309-249 140-5 226 80 257 249H152z" fill="url(#suit)"/>
  <path d="M310 647l88 118 90-119 28 258H281l29-257z" fill="#e6edf1"/>
  <path d="M286 707l-55 195h151L286 707zM516 704l-111 198h190l-79-198z" fill="#070b11"/>
  <path d="M320 648c24 42 52 64 84 64 34 0 61-21 82-64l-26-34H346l-26 34z" fill="#b98f72"/>
  <path d="M250 351c3-121 78-209 194-203 107 5 176 91 175 210-1 135-61 248-179 250-109 2-188-95-190-257z" fill="#c99b7e"/>
  <path d="M251 371c-19-11-38 2-35 39 3 40 25 70 52 69l-17-108zM617 371c20-10 38 4 34 41-4 39-26 69-53 68l19-109z" fill="#b98f72"/>
  <path d="M248 352c12-132 79-212 198-210 80 1 138 39 170 112-43-31-89-44-137-38-61 8-109-6-145-42-40 40-58 95-86 178z" fill="#17110e"/>
  <path d="M314 390c34-18 71-17 107 0M482 390c34-18 69-17 103 1" stroke="#231a16" stroke-width="9" stroke-linecap="round"/>
  <path d="M366 523c30 16 62 16 96 0" stroke="#7b4d40" stroke-width="8" stroke-linecap="round"/>
  <path d="M437 415l-16 85 38-3" stroke="#9c6b59" stroke-width="7" stroke-linecap="round" stroke-linejoin="round"/>
  <path d="M120 820c102-24 212-36 331-32 90 3 168 17 236 42" stroke="#4f86a8" stroke-opacity=".5" stroke-width="2"/>
  <path d="M82 874c182-32 369-32 562 0" stroke="#c8a35c" stroke-opacity=".45" stroke-width="2"/>
</svg>
